<?xml version="1.0" encoding="utf-8"?><!-- Uploaded to: SVG Repo, www.svgrepo.com, Generator: SVG Repo Mixer Tools -->
<svg fill="#000000" width="800px" height="800px" viewBox="0 0 24 24" id="email-open" data-name="Flat Color" xmlns="http://www.w3.org/2000/svg" class="icon flat-color"><path id="secondary" d="M18,2H6A1,1,0,0,0,5,3v8a1,1,0,0,0,.45.83l5.44,3.63h0a2,2,0,0,0,2.22,0l5.44-3.63A1,1,0,0,0,19,11V3A1,1,0,0,0,18,2Z" style="fill: rgb(44, 169, 188);"></path><path id="primary" d="M20.94,9.1a2,2,0,0,0-2.05.1L12,13.8,5.11,9.2A2,2,0,0,0,2,10.87V20a2,2,0,0,0,2,2H20a2,2,0,0,0,2-2V10.87A2,2,0,0,0,20.94,9.1Z" style="fill: rgb(0, 0, 0);"></path></svg>